<?xml version="1.0" encoding="UTF-8" standalone="no"?>
<!DOCTYPE svg PUBLIC "-//W3C//DTD SVG 1.1//EN"
 "http://www.w3.org/Graphics/SVG/1.1/DTD/svg11.dtd">
<!-- Generated by graphviz version 15.1.0 (20260618.0150)
 -->
<!-- Title: architecture Pages: 1 -->
<svg width="949pt" height="366pt"
 viewBox="0.00 0.00 949.00 366.00" xmlns="http://www.w3.org/2000/svg" xmlns:xlink="http://www.w3.org/1999/xlink">
<g id="graph0" class="graph" transform="scale(1 1) rotate(0) translate(4 361.66)">
<title>architecture</title>
<polygon fill="white" stroke="none" points="-4,4 -4,-361.66 944.68,-361.66 944.68,4 -4,4"/>
<!-- sources -->
<g id="node1" class="node">
<title>sources</title>
<path fill="#ffe0b2" stroke="black" d="M189.56,-261.24C189.56,-261.24 28.12,-261.24 28.12,-261.24 22.12,-261.24 16.13,-255.24 16.13,-249.24 16.13,-249.24 16.13,-218.7 16.13,-218.7 16.13,-212.7 22.13,-206.7 28.13,-206.7 28.13,-206.7 189.56,-206.7 189.56,-206.7 195.56,-206.7 201.56,-212.7 201.56,-218.7 201.56,-218.7 201.56,-249.24 201.56,-249.24 201.56,-255.24 195.56,-261.24 189.56,-261.24"/>
<text xml:space="preserve" text-anchor="middle" x="108.84" y="-235.47" font-family="Helvetica,sans-Serif" font-size="15.00">Data Sources</text>
<text xml:space="preserve" text-anchor="middle" x="108.84" y="-219.72" font-family="Helvetica,sans-Serif" font-size="15.00">GST · UPI · AA · EPFO</text>
</g>
<!-- etl -->
<g id="node2" class="node">
<title>etl</title>
<path fill="#bbdefb" stroke="black" d="M390.31,-269.12C390.31,-269.12 245.38,-269.12 245.38,-269.12 239.38,-269.12 233.38,-263.12 233.38,-257.12 233.38,-257.12 233.38,-210.83 233.38,-210.83 233.38,-204.83 239.38,-198.83 245.38,-198.83 245.38,-198.83 390.31,-198.83 390.31,-198.83 396.31,-198.83 402.31,-204.83 402.31,-210.83 402.31,-210.83 402.31,-257.12 402.31,-257.12 402.31,-263.12 396.31,-269.12 390.31,-269.12"/>
<text xml:space="preserve" text-anchor="middle" x="317.84" y="-243.35" font-family="Helvetica,sans-Serif" font-size="15.00">Layer 1: ETL Engine</text>
<text xml:space="preserve" text-anchor="middle" x="317.84" y="-227.6" font-family="Helvetica,sans-Serif" font-size="15.00">Normalize + Validate</text>
<text xml:space="preserve" text-anchor="middle" x="317.84" y="-211.85" font-family="Helvetica,sans-Serif" font-size="15.00">+ Audit Lineage</text>
</g>
<!-- sources&#45;&gt;etl -->
<g id="edge1" class="edge">
<title>sources&#45;&gt;etl</title>
<path fill="none" stroke="#666666" stroke-width="1.2" d="M201.91,-233.97C209.07,-233.97 216.23,-233.97 223.39,-233.97"/>
<polygon fill="#666666" stroke="#666666" stroke-width="1.2" points="223.34,-236.78 231.34,-233.98 223.34,-231.18 223.34,-236.78"/>
</g>
<!-- ai -->
<g id="node6" class="node">
<title>ai</title>
<path fill="#fff9c4" stroke="black" d="M205.68,-158.83C205.68,-158.83 12,-158.83 12,-158.83 6,-158.83 0,-152.83 0,-146.83 0,-146.83 0,-100.54 0,-100.54 0,-94.54 6,-88.54 12,-88.54 12,-88.54 205.68,-88.54 205.68,-88.54 211.68,-88.54 217.68,-94.54 217.68,-100.54 217.68,-100.54 217.68,-146.83 217.68,-146.83 217.68,-152.83 211.68,-158.83 205.68,-158.83"/>
<text xml:space="preserve" text-anchor="middle" x="108.84" y="-133.06" font-family="Helvetica,sans-Serif" font-size="15.00">Layer 3: AI Engine</text>
<text xml:space="preserve" text-anchor="middle" x="108.84" y="-117.31" font-family="Helvetica,sans-Serif" font-size="15.00">Fact Retrieval &#45;&gt; Prompt &#45;&gt;</text>
<text xml:space="preserve" text-anchor="middle" x="108.84" y="-101.56" font-family="Helvetica,sans-Serif" font-size="15.00">Gemini LLM + Chart Builder</text>
</g>
<!-- sources&#45;&gt;ai -->
<!-- db1 -->
<g id="node3" class="node">
<title>db1</title>
<path fill="#e1bee7" stroke="black" d="M555.31,-262.12C555.31,-265.57 528.2,-268.38 494.84,-268.38 461.48,-268.38 434.38,-265.57 434.38,-262.12 434.38,-262.12 434.38,-205.83 434.38,-205.83 434.38,-202.38 461.48,-199.57 494.84,-199.57 528.2,-199.57 555.31,-202.38 555.31,-205.83 555.31,-205.83 555.31,-262.12 555.31,-262.12"/>
<path fill="none" stroke="black" d="M555.31,-262.12C555.31,-258.67 528.2,-255.87 494.84,-255.87 461.48,-255.87 434.38,-258.67 434.38,-262.12"/>
<text xml:space="preserve" text-anchor="middle" x="494.84" y="-235.12" font-family="Helvetica,sans-Serif" font-size="13.00">PostgreSQL</text>
<text xml:space="preserve" text-anchor="middle" x="494.84" y="-221.62" font-family="Helvetica,sans-Serif" font-size="13.00">(raw + lineage)</text>
</g>
<!-- etl&#45;&gt;db1 -->
<g id="edge2" class="edge">
<title>etl&#45;&gt;db1</title>
<path fill="none" stroke="#666666" stroke-width="1.2" d="M402.54,-233.97C409.73,-233.97 416.91,-233.97 424.1,-233.97"/>
<polygon fill="#666666" stroke="#666666" stroke-width="1.2" points="424.09,-236.78 432.09,-233.98 424.09,-231.18 424.09,-236.78"/>
</g>
<!-- analytics -->
<g id="node4" class="node">
<title>analytics</title>
<path fill="#c8e6c9" stroke="black" d="M798.68,-269.12C798.68,-269.12 599,-269.12 599,-269.12 593,-269.12 587,-263.12 587,-257.12 587,-257.12 587,-210.83 587,-210.83 587,-204.83 593,-198.83 599,-198.83 599,-198.83 798.68,-198.83 798.68,-198.83 804.68,-198.83 810.68,-204.83 810.68,-210.83 810.68,-210.83 810.68,-257.12 810.68,-257.12 810.68,-263.12 804.68,-269.12 798.68,-269.12"/>
<text xml:space="preserve" text-anchor="middle" x="698.84" y="-243.35" font-family="Helvetica,sans-Serif" font-size="15.00">Layer 2: Analytics Engine</text>
<text xml:space="preserve" text-anchor="middle" x="698.84" y="-227.6" font-family="Helvetica,sans-Serif" font-size="15.00">Ratios &#45;&gt; Cross&#45;Validation &#45;&gt;</text>
<text xml:space="preserve" text-anchor="middle" x="698.84" y="-211.85" font-family="Helvetica,sans-Serif" font-size="15.00">Composite Score + Flags</text>
</g>
<!-- db1&#45;&gt;analytics -->
<g id="edge3" class="edge">
<title>db1&#45;&gt;analytics</title>
<path fill="none" stroke="#666666" stroke-width="1.2" d="M555.8,-233.97C562.84,-233.97 569.89,-233.97 576.93,-233.97"/>
<polygon fill="#666666" stroke="#666666" stroke-width="1.2" points="576.72,-236.78 584.72,-233.98 576.72,-231.18 576.72,-236.78"/>
</g>
<!-- db2 -->
<g id="node5" class="node">
<title>db2</title>
<path fill="#e1bee7" stroke="black" d="M940.68,-262.12C940.68,-265.57 918.79,-268.38 891.84,-268.38 864.89,-268.38 843,-265.57 843,-262.12 843,-262.12 843,-205.83 843,-205.83 843,-202.38 864.89,-199.57 891.84,-199.57 918.79,-199.57 940.68,-202.38 940.68,-205.83 940.68,-205.83 940.68,-262.12 940.68,-262.12"/>
<path fill="none" stroke="black" d="M940.68,-262.12C940.68,-258.67 918.79,-255.87 891.84,-255.87 864.89,-255.87 843,-258.67 843,-262.12"/>
<text xml:space="preserve" text-anchor="middle" x="891.84" y="-235.12" font-family="Helvetica,sans-Serif" font-size="13.00">scorecards</text>
<text xml:space="preserve" text-anchor="middle" x="891.84" y="-221.62" font-family="Helvetica,sans-Serif" font-size="13.00">(JSONB)</text>
</g>
<!-- analytics&#45;&gt;db2 -->
<g id="edge4" class="edge">
<title>analytics&#45;&gt;db2</title>
<path fill="none" stroke="#666666" stroke-width="1.2" d="M811.17,-233.97C818.56,-233.97 825.94,-233.97 833.33,-233.97"/>
<polygon fill="#666666" stroke="#666666" stroke-width="1.2" points="832.87,-236.78 840.87,-233.98 832.87,-231.18 832.87,-236.78"/>
</g>
<!-- db2&#45;&gt;ai -->
<g id="edge8" class="edge">
<title>db2&#45;&gt;ai</title>
<path fill="none" stroke="#333333" stroke-width="1.6" d="M842.68,-204.49C837.45,-202.27 832.11,-200.32 826.84,-198.83 572.65,-126.97 494.32,-202.74 233.84,-158.83 231.89,-158.5 229.92,-158.15 227.94,-157.79"/>
<polygon fill="#333333" stroke="#333333" stroke-width="1.6" points="228.74,-155.09 220.35,-156.31 227.67,-160.59 228.74,-155.09"/>
</g>
<!-- db3 -->
<g id="node7" class="node">
<title>db3</title>
<path fill="#e1bee7" stroke="black" d="M341.68,-151.83C341.68,-155.28 321.13,-158.09 295.84,-158.09 270.55,-158.09 250,-155.28 250,-151.83 250,-151.83 250,-95.54 250,-95.54 250,-92.09 270.55,-89.28 295.84,-89.28 321.13,-89.28 341.68,-92.09 341.68,-95.54 341.68,-95.54 341.68,-151.83 341.68,-151.83"/>
<path fill="none" stroke="black" d="M341.68,-151.83C341.68,-148.38 321.13,-145.58 295.84,-145.58 270.55,-145.58 250,-148.38 250,-151.83"/>
<text xml:space="preserve" text-anchor="middle" x="295.84" y="-124.84" font-family="Helvetica,sans-Serif" font-size="13.00">ai_reports</text>
<text xml:space="preserve" text-anchor="middle" x="295.84" y="-111.34" font-family="Helvetica,sans-Serif" font-size="13.00">(JSONB)</text>
</g>
<!-- ai&#45;&gt;db3 -->
<g id="edge5" class="edge">
<title>ai&#45;&gt;db3</title>
<path fill="none" stroke="#666666" stroke-width="1.2" d="M218.05,-123.68C225.45,-123.68 232.86,-123.68 240.27,-123.68"/>
<polygon fill="#666666" stroke="#666666" stroke-width="1.2" points="239.83,-126.49 247.83,-123.69 239.83,-120.89 239.83,-126.49"/>
</g>
<!-- geminiapi -->
<g id="node11" class="node">
<title>geminiapi</title>
<polygon fill="#b2dfdb" stroke="black" points="169.68,-48.54 42,-48.54 42,0 175.68,0 175.68,-42.54 169.68,-48.54"/>
<polyline fill="none" stroke="black" points="169.68,-48.54 169.68,-42.54"/>
<polyline fill="none" stroke="black" points="175.68,-42.54 169.68,-42.54"/>
<text xml:space="preserve" text-anchor="middle" x="108.84" y="-25.62" font-family="Helvetica,sans-Serif" font-size="12.00">Google Gemini API</text>
<text xml:space="preserve" text-anchor="middle" x="108.84" y="-12.87" font-family="Helvetica,sans-Serif" font-size="12.00">(AI Studio)</text>
</g>
<!-- ai&#45;&gt;geminiapi -->
<g id="edge11" class="edge">
<title>ai&#45;&gt;geminiapi</title>
<path fill="none" stroke="#666666" stroke-width="1.2" stroke-dasharray="5,2" d="M108.84,-88.07C108.84,-78.41 108.84,-67.94 108.84,-58.37"/>
<polygon fill="#666666" stroke="#666666" stroke-width="1.2" points="111.64,-58.61 108.84,-50.61 106.04,-58.61 111.64,-58.61"/>
</g>
<!-- frontend -->
<g id="node8" class="node">
<title>frontend</title>
<path fill="#f3e5f5" stroke="black" d="M601.56,-150.95C601.56,-150.95 386.12,-150.95 386.12,-150.95 380.12,-150.95 374.12,-144.95 374.12,-138.95 374.12,-138.95 374.12,-108.41 374.12,-108.41 374.12,-102.41 380.12,-96.41 386.12,-96.41 386.12,-96.41 601.56,-96.41 601.56,-96.41 607.56,-96.41 613.56,-102.41 613.56,-108.41 613.56,-108.41 613.56,-138.95 613.56,-138.95 613.56,-144.95 607.56,-150.95 601.56,-150.95"/>
<text xml:space="preserve" text-anchor="middle" x="493.84" y="-125.19" font-family="Helvetica,sans-Serif" font-size="15.00">Streamlit Frontend</text>
<text xml:space="preserve" text-anchor="middle" x="493.84" y="-109.44" font-family="Helvetica,sans-Serif" font-size="15.00">Login &#45;&gt; Dashboard &#45;&gt; Reports</text>
</g>
<!-- db3&#45;&gt;frontend -->
<g id="edge6" class="edge">
<title>db3&#45;&gt;frontend</title>
<path fill="none" stroke="#666666" stroke-width="1.2" d="M341.86,-123.68C349.29,-123.68 356.72,-123.68 364.15,-123.68"/>
<polygon fill="#666666" stroke="#666666" stroke-width="1.2" points="364.1,-126.49 372.1,-123.69 364.1,-120.89 364.1,-126.49"/>
</g>
<!-- lender -->
<g id="node9" class="node">
<title>lender</title>
<ellipse fill="#ffcdd2" stroke="black" cx="733.84" cy="-123.68" rx="88.69" ry="27.43"/>
<text xml:space="preserve" text-anchor="middle" x="733.84" y="-117.31" font-family="Helvetica,sans-Serif" font-size="15.00">Bank / Lender</text>
</g>
<!-- frontend&#45;&gt;lender -->
<g id="edge7" class="edge">
<title>frontend&#45;&gt;lender</title>
<path fill="none" stroke="#666666" stroke-width="1.2" d="M613.84,-123.68C620.93,-123.68 628.02,-123.68 635.11,-123.68"/>
<polygon fill="#666666" stroke="#666666" stroke-width="1.2" points="634.96,-126.49 642.96,-123.69 634.96,-120.89 634.96,-126.49"/>
</g>
<!-- uli -->
<g id="node10" class="node">
<title>uli</title>
<polygon fill="#b2dfdb" stroke="black" points="410.56,-357.66 219.13,-357.66 219.13,-309.12 416.56,-309.12 416.56,-351.66 410.56,-357.66"/>
<polyline fill="none" stroke="black" points="410.56,-357.66 410.56,-351.66"/>
<polyline fill="none" stroke="black" points="416.56,-351.66 410.56,-351.66"/>
<text xml:space="preserve" text-anchor="middle" x="317.84" y="-334.74" font-family="Helvetica,sans-Serif" font-size="12.00">ULI / AA Ecosystem (Sahamati)</text>
<text xml:space="preserve" text-anchor="middle" x="317.84" y="-321.99" font-family="Helvetica,sans-Serif" font-size="12.00">[data contract]</text>
</g>
<!-- uli&#45;&gt;etl -->
<g id="edge10" class="edge">
<title>uli&#45;&gt;etl</title>
<path fill="none" stroke="#666666" stroke-width="1.2" stroke-dasharray="5,2" d="M317.84,-308.81C317.84,-299.85 317.84,-289.32 317.84,-279.07"/>
<polygon fill="#666666" stroke="#666666" stroke-width="1.2" points="320.64,-279.21 317.84,-271.21 315.04,-279.21 320.64,-279.21"/>
</g>
</g>
</svg>
