<?xml version="1.0" encoding="UTF-8" standalone="no"?>
<!DOCTYPE svg PUBLIC "-//W3C//DTD SVG 1.1//EN"
 "http://www.w3.org/Graphics/SVG/1.1/DTD/svg11.dtd">
<!-- Generated by graphviz version 15.1.0 (20260618.0150)
 -->
<!-- Title: process_flow Pages: 1 -->
<svg width="1207pt" height="448pt"
 viewBox="0.00 0.00 1207.00 448.00" xmlns="http://www.w3.org/2000/svg" xmlns:xlink="http://www.w3.org/1999/xlink">
<g id="graph0" class="graph" transform="scale(1 1) rotate(0) translate(4 443.82)">
<title>process_flow</title>
<polygon fill="white" stroke="none" points="-4,4 -4,-443.82 1203.06,-443.82 1203.06,4 -4,4"/>
<!-- start -->
<g id="node1" class="node">
<title>start</title>
<ellipse fill="#ffcdd2" stroke="black" cx="93.88" cy="-384.29" rx="71.24" ry="24.75"/>
<text xml:space="preserve" text-anchor="middle" x="93.88" y="-385.44" font-family="Helvetica,sans-Serif" font-size="13.00">Lender logs in</text>
<text xml:space="preserve" text-anchor="middle" x="93.88" y="-371.94" font-family="Helvetica,sans-Serif" font-size="13.00">(Streamlit)</text>
</g>
<!-- select -->
<g id="node2" class="node">
<title>select</title>
<path fill="#ffe0b2" stroke="black" d="M372.88,-402.29C372.88,-402.29 284.88,-402.29 284.88,-402.29 278.88,-402.29 272.88,-396.29 272.88,-390.29 272.88,-390.29 272.88,-378.29 272.88,-378.29 272.88,-372.29 278.88,-366.29 284.88,-366.29 284.88,-366.29 372.88,-366.29 372.88,-366.29 378.88,-366.29 384.88,-372.29 384.88,-378.29 384.88,-378.29 384.88,-390.29 384.88,-390.29 384.88,-396.29 378.88,-402.29 372.88,-402.29"/>
<text xml:space="preserve" text-anchor="middle" x="328.88" y="-385.44" font-family="Helvetica,sans-Serif" font-size="13.00">Select customer</text>
<text xml:space="preserve" text-anchor="middle" x="328.88" y="-371.94" font-family="Helvetica,sans-Serif" font-size="13.00">from dashboard</text>
</g>
<!-- start&#45;&gt;select -->
<g id="edge1" class="edge">
<title>start&#45;&gt;select</title>
<path fill="none" stroke="#666666" stroke-width="1.3" d="M165.34,-384.29C196.41,-384.29 232.58,-384.29 263,-384.29"/>
<polygon fill="#666666" stroke="#666666" stroke-width="1.3" points="262.69,-387.09 270.69,-384.29 262.69,-381.49 262.69,-387.09"/>
</g>
<!-- generate -->
<g id="node3" class="node">
<title>generate</title>
<path fill="#ffe0b2" stroke="black" d="M630,-402.29C630,-402.29 497.75,-402.29 497.75,-402.29 491.75,-402.29 485.75,-396.29 485.75,-390.29 485.75,-390.29 485.75,-378.29 485.75,-378.29 485.75,-372.29 491.75,-366.29 497.75,-366.29 497.75,-366.29 630,-366.29 630,-366.29 636,-366.29 642,-372.29 642,-378.29 642,-378.29 642,-390.29 642,-390.29 642,-396.29 636,-402.29 630,-402.29"/>
<text xml:space="preserve" text-anchor="middle" x="563.88" y="-385.44" font-family="Helvetica,sans-Serif" font-size="13.00">Click</text>
<text xml:space="preserve" text-anchor="middle" x="563.88" y="-371.94" font-family="Helvetica,sans-Serif" font-size="13.00">&quot;Generate Health Card&quot;</text>
</g>
<!-- select&#45;&gt;generate -->
<g id="edge2" class="edge">
<title>select&#45;&gt;generate</title>
<path fill="none" stroke="#666666" stroke-width="1.3" d="M385.16,-384.29C412.24,-384.29 445.34,-384.29 475.66,-384.29"/>
<polygon fill="#666666" stroke="#666666" stroke-width="1.3" points="475.42,-387.09 483.42,-384.29 475.42,-381.49 475.42,-387.09"/>
</g>
<!-- ratios -->
<g id="node4" class="node">
<title>ratios</title>
<path fill="#c8e6c9" stroke="black" d="M857.5,-402.29C857.5,-402.29 740.25,-402.29 740.25,-402.29 734.25,-402.29 728.25,-396.29 728.25,-390.29 728.25,-390.29 728.25,-378.29 728.25,-378.29 728.25,-372.29 734.25,-366.29 740.25,-366.29 740.25,-366.29 857.5,-366.29 857.5,-366.29 863.5,-366.29 869.5,-372.29 869.5,-378.29 869.5,-378.29 869.5,-390.29 869.5,-390.29 869.5,-396.29 863.5,-402.29 857.5,-402.29"/>
<text xml:space="preserve" text-anchor="middle" x="798.88" y="-385.44" font-family="Helvetica,sans-Serif" font-size="13.00">Compute GST / UPI /</text>
<text xml:space="preserve" text-anchor="middle" x="798.88" y="-371.94" font-family="Helvetica,sans-Serif" font-size="13.00">AA / EPFO ratios</text>
</g>
<!-- generate&#45;&gt;ratios -->
<g id="edge3" class="edge">
<title>generate&#45;&gt;ratios</title>
<path fill="none" stroke="#666666" stroke-width="1.3" d="M642.45,-384.29C666.73,-384.29 693.5,-384.29 717.93,-384.29"/>
<polygon fill="#666666" stroke="#666666" stroke-width="1.3" points="717.92,-387.09 725.92,-384.29 717.92,-381.49 717.92,-387.09"/>
</g>
<!-- ntc -->
<g id="node5" class="node">
<title>ntc</title>
<polygon fill="#fff3c4" stroke="black" points="1033.88,-439.82 870.83,-384.29 1033.88,-328.76 1196.92,-384.29 1033.88,-439.82"/>
<text xml:space="preserve" text-anchor="middle" x="1033.88" y="-392.02" font-family="Helvetica,sans-Serif" font-size="12.00">GST&#45;registered?</text>
<text xml:space="preserve" text-anchor="middle" x="1033.88" y="-379.27" font-family="Helvetica,sans-Serif" font-size="12.00">Yes: score normally</text>
<text xml:space="preserve" text-anchor="middle" x="1033.88" y="-366.52" font-family="Helvetica,sans-Serif" font-size="12.00">No (NTC): neutral 50, NA</text>
</g>
<!-- ratios&#45;&gt;ntc -->
<g id="edge4" class="edge">
<title>ratios&#45;&gt;ntc</title>
<path fill="none" stroke="#666666" stroke-width="1.3" d="M869.7,-384.29C869.77,-384.29 869.84,-384.29 869.9,-384.29"/>
<polygon fill="#666666" stroke="#666666" stroke-width="1.3" points="860.14,-387.1 868.14,-384.3 860.14,-381.5 860.14,-387.1"/>
</g>
<!-- crossval -->
<g id="node6" class="node">
<title>crossval</title>
<path fill="#c8e6c9" stroke="black" d="M175.75,-227.29C175.75,-227.29 12,-227.29 12,-227.29 6,-227.29 0,-221.29 0,-215.29 0,-215.29 0,-203.29 0,-203.29 0,-197.29 6,-191.29 12,-191.29 12,-191.29 175.75,-191.29 175.75,-191.29 181.75,-191.29 187.75,-197.29 187.75,-203.29 187.75,-203.29 187.75,-215.29 187.75,-215.29 187.75,-221.29 181.75,-227.29 175.75,-227.29"/>
<text xml:space="preserve" text-anchor="middle" x="93.88" y="-210.44" font-family="Helvetica,sans-Serif" font-size="13.00">Cross&#45;validate sources</text>
<text xml:space="preserve" text-anchor="middle" x="93.88" y="-196.94" font-family="Helvetica,sans-Serif" font-size="13.00">(GST vs AA vs UPI vs EPFO)</text>
</g>
<!-- ntc&#45;&gt;crossval -->
<g id="edge5" class="edge">
<title>ntc&#45;&gt;crossval</title>
<path fill="none" stroke="#333333" stroke-width="1.6" d="M927.87,-364.56C746.45,-330.78 378.57,-262.3 198.26,-228.73"/>
<polygon fill="#333333" stroke="#333333" stroke-width="1.6" points="199,-226.02 190.62,-227.31 197.97,-231.52 199,-226.02"/>
</g>
<!-- composite -->
<g id="node7" class="node">
<title>composite</title>
<path fill="#c8e6c9" stroke="black" d="M403.25,-227.29C403.25,-227.29 254.5,-227.29 254.5,-227.29 248.5,-227.29 242.5,-221.29 242.5,-215.29 242.5,-215.29 242.5,-203.29 242.5,-203.29 242.5,-197.29 248.5,-191.29 254.5,-191.29 254.5,-191.29 403.25,-191.29 403.25,-191.29 409.25,-191.29 415.25,-197.29 415.25,-203.29 415.25,-203.29 415.25,-215.29 415.25,-215.29 415.25,-221.29 409.25,-227.29 403.25,-227.29"/>
<text xml:space="preserve" text-anchor="middle" x="328.88" y="-210.44" font-family="Helvetica,sans-Serif" font-size="13.00">Weighted composite score</text>
<text xml:space="preserve" text-anchor="middle" x="328.88" y="-196.94" font-family="Helvetica,sans-Serif" font-size="13.00">(0&#45;100) + red/green flags</text>
</g>
<!-- crossval&#45;&gt;composite -->
<g id="edge6" class="edge">
<title>crossval&#45;&gt;composite</title>
<path fill="none" stroke="#666666" stroke-width="1.3" d="M188.1,-209.29C202.77,-209.29 217.94,-209.29 232.65,-209.29"/>
<polygon fill="#666666" stroke="#666666" stroke-width="1.3" points="232.27,-212.09 240.27,-209.29 232.27,-206.49 232.27,-212.09"/>
</g>
<!-- save_sc -->
<g id="node8" class="node">
<title>save_sc</title>
<path fill="#e1bee7" stroke="black" d="M598.12,-228.14C598.12,-230.45 582.77,-232.33 563.88,-232.33 544.98,-232.33 529.62,-230.45 529.62,-228.14 529.62,-228.14 529.62,-190.45 529.62,-190.45 529.62,-188.14 544.98,-186.26 563.88,-186.26 582.77,-186.26 598.12,-188.14 598.12,-190.45 598.12,-190.45 598.12,-228.14 598.12,-228.14"/>
<path fill="none" stroke="black" d="M598.12,-228.14C598.12,-225.83 582.77,-223.95 563.88,-223.95 544.98,-223.95 529.62,-225.83 529.62,-228.14"/>
<text xml:space="preserve" text-anchor="middle" x="563.88" y="-210.64" font-family="Helvetica,sans-Serif" font-size="12.00">Persist</text>
<text xml:space="preserve" text-anchor="middle" x="563.88" y="-197.89" font-family="Helvetica,sans-Serif" font-size="12.00">scorecard</text>
</g>
<!-- composite&#45;&gt;save_sc -->
<g id="edge7" class="edge">
<title>composite&#45;&gt;save_sc</title>
<path fill="none" stroke="#666666" stroke-width="1.3" d="M415.71,-209.29C450.92,-209.29 490.07,-209.29 519.28,-209.29"/>
<polygon fill="#666666" stroke="#666666" stroke-width="1.3" points="519.21,-212.09 527.21,-209.29 519.21,-206.49 519.21,-212.09"/>
</g>
<!-- facts -->
<g id="node9" class="node">
<title>facts</title>
<path fill="#fff9c4" stroke="black" d="M840.62,-227.29C840.62,-227.29 757.12,-227.29 757.12,-227.29 751.12,-227.29 745.12,-221.29 745.12,-215.29 745.12,-215.29 745.12,-203.29 745.12,-203.29 745.12,-197.29 751.12,-191.29 757.12,-191.29 757.12,-191.29 840.62,-191.29 840.62,-191.29 846.62,-191.29 852.62,-197.29 852.62,-203.29 852.62,-203.29 852.62,-215.29 852.62,-215.29 852.62,-221.29 846.62,-227.29 840.62,-227.29"/>
<text xml:space="preserve" text-anchor="middle" x="798.88" y="-210.44" font-family="Helvetica,sans-Serif" font-size="13.00">Retrieve</text>
<text xml:space="preserve" text-anchor="middle" x="798.88" y="-196.94" font-family="Helvetica,sans-Serif" font-size="13.00">scorecard facts</text>
</g>
<!-- save_sc&#45;&gt;facts -->
<g id="edge8" class="edge">
<title>save_sc&#45;&gt;facts</title>
<path fill="none" stroke="#666666" stroke-width="1.3" d="M598.55,-209.29C634.4,-209.29 691.17,-209.29 735.14,-209.29"/>
<polygon fill="#666666" stroke="#666666" stroke-width="1.3" points="734.91,-212.09 742.91,-209.29 734.91,-206.49 734.91,-212.09"/>
</g>
<!-- gemini -->
<g id="node10" class="node">
<title>gemini</title>
<polygon fill="#fff3c4" stroke="black" points="1033.88,-280.45 868.7,-209.29 1033.88,-138.13 1199.06,-209.29 1033.88,-280.45"/>
<text xml:space="preserve" text-anchor="middle" x="1033.88" y="-223.39" font-family="Helvetica,sans-Serif" font-size="12.00">Gemini available</text>
<text xml:space="preserve" text-anchor="middle" x="1033.88" y="-210.64" font-family="Helvetica,sans-Serif" font-size="12.00">&amp; in quota?</text>
<text xml:space="preserve" text-anchor="middle" x="1033.88" y="-197.89" font-family="Helvetica,sans-Serif" font-size="12.00">Yes: LLM narrative</text>
<text xml:space="preserve" text-anchor="middle" x="1033.88" y="-185.14" font-family="Helvetica,sans-Serif" font-size="12.00">No: deterministic fallback</text>
</g>
<!-- facts&#45;&gt;gemini -->
<g id="edge9" class="edge">
<title>facts&#45;&gt;gemini</title>
<path fill="none" stroke="#666666" stroke-width="1.3" d="M853.08,-209.29C854.71,-209.29 856.37,-209.29 858.04,-209.29"/>
<polygon fill="#666666" stroke="#666666" stroke-width="1.3" points="857.89,-212.09 865.89,-209.29 857.89,-206.49 857.89,-212.09"/>
</g>
<!-- chart -->
<g id="node11" class="node">
<title>chart</title>
<path fill="#fff9c4" stroke="black" d="M145,-52.29C145,-52.29 42.75,-52.29 42.75,-52.29 36.75,-52.29 30.75,-46.29 30.75,-40.29 30.75,-40.29 30.75,-28.29 30.75,-28.29 30.75,-22.29 36.75,-16.29 42.75,-16.29 42.75,-16.29 145,-16.29 145,-16.29 151,-16.29 157,-22.29 157,-28.29 157,-28.29 157,-40.29 157,-40.29 157,-46.29 151,-52.29 145,-52.29"/>
<text xml:space="preserve" text-anchor="middle" x="93.88" y="-35.44" font-family="Helvetica,sans-Serif" font-size="13.00">Build chart configs</text>
<text xml:space="preserve" text-anchor="middle" x="93.88" y="-21.94" font-family="Helvetica,sans-Serif" font-size="13.00">(code, not LLM)</text>
</g>
<!-- gemini&#45;&gt;chart -->
<g id="edge10" class="edge">
<title>gemini&#45;&gt;chart</title>
<path fill="none" stroke="#333333" stroke-width="1.6" d="M917.67,-187.66C721.37,-151.12 329.62,-78.18 167.13,-47.93"/>
<polygon fill="#333333" stroke="#333333" stroke-width="1.6" points="167.99,-45.24 159.61,-46.53 166.96,-50.75 167.99,-45.24"/>
</g>
<!-- save_rep -->
<g id="node12" class="node">
<title>save_rep</title>
<path fill="#e1bee7" stroke="black" d="M355.88,-53.14C355.88,-55.45 343.77,-57.33 328.88,-57.33 313.98,-57.33 301.88,-55.45 301.88,-53.14 301.88,-53.14 301.88,-15.45 301.88,-15.45 301.88,-13.14 313.98,-11.26 328.88,-11.26 343.77,-11.26 355.88,-13.14 355.88,-15.45 355.88,-15.45 355.88,-53.14 355.88,-53.14"/>
<path fill="none" stroke="black" d="M355.88,-53.14C355.88,-50.83 343.77,-48.95 328.88,-48.95 313.98,-48.95 301.88,-50.83 301.88,-53.14"/>
<text xml:space="preserve" text-anchor="middle" x="328.88" y="-35.64" font-family="Helvetica,sans-Serif" font-size="12.00">Persist</text>
<text xml:space="preserve" text-anchor="middle" x="328.88" y="-22.89" font-family="Helvetica,sans-Serif" font-size="12.00">report</text>
</g>
<!-- chart&#45;&gt;save_rep -->
<g id="edge11" class="edge">
<title>chart&#45;&gt;save_rep</title>
<path fill="none" stroke="#666666" stroke-width="1.3" d="M157.47,-34.29C200.58,-34.29 256.06,-34.29 292.04,-34.29"/>
<polygon fill="#666666" stroke="#666666" stroke-width="1.3" points="291.67,-37.09 299.67,-34.29 291.67,-31.49 291.67,-37.09"/>
</g>
<!-- render -->
<g id="node13" class="node">
<title>render</title>
<path fill="#bbdefb" stroke="black" d="M626.25,-58.54C626.25,-58.54 501.5,-58.54 501.5,-58.54 495.5,-58.54 489.5,-52.54 489.5,-46.54 489.5,-46.54 489.5,-22.04 489.5,-22.04 489.5,-16.04 495.5,-10.04 501.5,-10.04 501.5,-10.04 626.25,-10.04 626.25,-10.04 632.25,-10.04 638.25,-16.04 638.25,-22.04 638.25,-22.04 638.25,-46.54 638.25,-46.54 638.25,-52.54 632.25,-58.54 626.25,-58.54"/>
<text xml:space="preserve" text-anchor="middle" x="563.88" y="-42.19" font-family="Helvetica,sans-Serif" font-size="13.00">Render Health Card:</text>
<text xml:space="preserve" text-anchor="middle" x="563.88" y="-28.69" font-family="Helvetica,sans-Serif" font-size="13.00">gauge, scores, charts,</text>
<text xml:space="preserve" text-anchor="middle" x="563.88" y="-15.19" font-family="Helvetica,sans-Serif" font-size="13.00">flags, narrative</text>
</g>
<!-- save_rep&#45;&gt;render -->
<g id="edge12" class="edge">
<title>save_rep&#45;&gt;render</title>
<path fill="none" stroke="#666666" stroke-width="1.3" d="M356.29,-34.29C386.4,-34.29 436.24,-34.29 479.53,-34.29"/>
<polygon fill="#666666" stroke="#666666" stroke-width="1.3" points="479.26,-37.09 487.26,-34.29 479.26,-31.49 479.26,-37.09"/>
</g>
<!-- decision -->
<g id="node14" class="node">
<title>decision</title>
<ellipse fill="#ffcdd2" stroke="black" cx="798.88" cy="-34.29" rx="96.17" ry="34.29"/>
<text xml:space="preserve" text-anchor="middle" x="798.88" y="-42.19" font-family="Helvetica,sans-Serif" font-size="13.00">Lender views score,</text>
<text xml:space="preserve" text-anchor="middle" x="798.88" y="-28.69" font-family="Helvetica,sans-Serif" font-size="13.00">downloads JSON,</text>
<text xml:space="preserve" text-anchor="middle" x="798.88" y="-15.19" font-family="Helvetica,sans-Serif" font-size="13.00">decides</text>
</g>
<!-- render&#45;&gt;decision -->
<g id="edge13" class="edge">
<title>render&#45;&gt;decision</title>
<path fill="none" stroke="#666666" stroke-width="1.3" d="M638.55,-34.29C655.76,-34.29 674.38,-34.29 692.63,-34.29"/>
<polygon fill="#666666" stroke="#666666" stroke-width="1.3" points="692.46,-37.09 700.46,-34.29 692.46,-31.49 692.46,-37.09"/>
</g>
</g>
</svg>
